<mxfile host="65bd71144e">
    <diagram id="aKiLU3jF-nU91f5OnJsQ" name="Page-1">
        <mxGraphModel dx="2210" dy="1535" grid="1" gridSize="10" guides="1" tooltips="1" connect="1" arrows="1" fold="1" page="1" pageScale="1" pageWidth="1169" pageHeight="1654" math="0" shadow="0">
            <root>
                <mxCell id="0"/>
                <mxCell id="1" parent="0"/>
                <mxCell id="29" value="" style="group" vertex="1" connectable="0" parent="1">
                    <mxGeometry x="459" y="60" width="250" height="1030" as="geometry"/>
                </mxCell>
                <mxCell id="2" value="Start" style="strokeWidth=2;html=1;shape=mxgraph.flowchart.start_1;whiteSpace=wrap;" vertex="1" parent="29">
                    <mxGeometry x="75" width="100" height="60" as="geometry"/>
                </mxCell>
                <mxCell id="3" value="Stop" style="strokeWidth=2;html=1;shape=mxgraph.flowchart.start_1;whiteSpace=wrap;" vertex="1" parent="29">
                    <mxGeometry x="75" y="970" width="100" height="60" as="geometry"/>
                </mxCell>
                <mxCell id="4" value="&lt;div style=&quot;color: rgb(204, 204, 204); font-family: Consolas, &amp;quot;Courier New&amp;quot;, monospace; font-size: 14px; line-height: 19px;&quot;&gt;&lt;span style=&quot;color: rgb(206, 145, 120);&quot;&gt;Input number of triangle:&lt;/span&gt;&lt;/div&gt;" style="html=1;strokeWidth=2;shape=manualInput;whiteSpace=wrap;rounded=1;size=26;arcSize=11;" vertex="1" parent="29">
                    <mxGeometry x="20" y="100" width="210" height="80" as="geometry"/>
                </mxCell>
                <mxCell id="5" style="edgeStyle=none;html=1;exitX=0.5;exitY=1;exitDx=0;exitDy=0;exitPerimeter=0;entryX=0.5;entryY=0;entryDx=0;entryDy=0;" edge="1" parent="29" source="2" target="4">
                    <mxGeometry relative="1" as="geometry"/>
                </mxCell>
                <mxCell id="6" value="&lt;div style=&quot;color: rgb(204, 204, 204); font-family: Consolas, &amp;quot;Courier New&amp;quot;, monospace; font-size: 14px; line-height: 19px;&quot;&gt;&lt;span style=&quot;color: rgb(197, 134, 192);&quot;&gt;for&lt;/span&gt; &lt;span style=&quot;color: rgb(156, 220, 254);&quot;&gt;i&lt;/span&gt; &lt;span style=&quot;color: rgb(197, 134, 192);&quot;&gt;in&lt;/span&gt; &lt;span style=&quot;color: rgb(78, 201, 176);&quot;&gt;range&lt;/span&gt;(&lt;span style=&quot;color: rgb(181, 206, 168);&quot;&gt;1&lt;/span&gt;, &lt;span style=&quot;color: rgb(156, 220, 254);&quot;&gt;num_tri&lt;/span&gt; &lt;span style=&quot;color: rgb(212, 212, 212);&quot;&gt;+&lt;/span&gt; &lt;span style=&quot;color: rgb(181, 206, 168);&quot;&gt;1&lt;/span&gt;):&lt;/div&gt;" style="strokeWidth=2;html=1;shape=mxgraph.flowchart.decision;whiteSpace=wrap;labelBackgroundColor=none;" vertex="1" parent="29">
                    <mxGeometry x="45" y="220" width="160" height="160" as="geometry"/>
                </mxCell>
                <mxCell id="7" style="edgeStyle=none;html=1;exitX=0.5;exitY=1;exitDx=0;exitDy=0;entryX=0.5;entryY=0;entryDx=0;entryDy=0;entryPerimeter=0;" edge="1" parent="29" source="4" target="6">
                    <mxGeometry relative="1" as="geometry"/>
                </mxCell>
                <mxCell id="8" value="&lt;div style=&quot;color: rgb(204, 204, 204); font-family: Consolas, &amp;quot;Courier New&amp;quot;, monospace; font-size: 14px; line-height: 19px;&quot;&gt;&lt;span style=&quot;color: rgb(206, 145, 120);&quot;&gt;Input triangle height&lt;/span&gt;&lt;/div&gt;" style="html=1;strokeWidth=2;shape=manualInput;whiteSpace=wrap;rounded=1;size=26;arcSize=11;labelBackgroundColor=none;" vertex="1" parent="29">
                    <mxGeometry x="20" y="410" width="210" height="80" as="geometry"/>
                </mxCell>
                <mxCell id="9" style="edgeStyle=none;html=1;exitX=0.5;exitY=1;exitDx=0;exitDy=0;exitPerimeter=0;entryX=0.5;entryY=0;entryDx=0;entryDy=0;" edge="1" parent="29" source="6" target="8">
                    <mxGeometry relative="1" as="geometry"/>
                </mxCell>
                <mxCell id="10" value="&lt;div style=&quot;color: rgb(204, 204, 204); font-family: Consolas, &amp;quot;Courier New&amp;quot;, monospace; font-size: 14px; line-height: 19px;&quot;&gt;&lt;div style=&quot;line-height: 19px;&quot;&gt;&lt;span style=&quot;color: rgb(206, 145, 120);&quot;&gt;Input triangle base&lt;/span&gt;&lt;/div&gt;&lt;/div&gt;" style="html=1;strokeWidth=2;shape=manualInput;whiteSpace=wrap;rounded=1;size=26;arcSize=11;labelBackgroundColor=none;" vertex="1" parent="29">
                    <mxGeometry x="20" y="540" width="210" height="70" as="geometry"/>
                </mxCell>
                <mxCell id="12" style="edgeStyle=none;html=1;exitX=0.5;exitY=1;exitDx=0;exitDy=0;entryX=0.5;entryY=0;entryDx=0;entryDy=0;" edge="1" parent="29" source="8" target="10">
                    <mxGeometry relative="1" as="geometry"/>
                </mxCell>
                <mxCell id="11" value="&lt;div style=&quot;color: rgb(204, 204, 204); font-family: Consolas, &amp;quot;Courier New&amp;quot;, monospace; font-size: 14px; line-height: 19px;&quot;&gt;&lt;span style=&quot;color: rgb(156, 220, 254);&quot;&gt;tri_area&lt;/span&gt; &lt;span style=&quot;color: rgb(212, 212, 212);&quot;&gt;=&lt;/span&gt; &lt;span style=&quot;color: rgb(181, 206, 168);&quot;&gt;1&lt;/span&gt;&lt;span style=&quot;color: rgb(212, 212, 212);&quot;&gt;/&lt;/span&gt;&lt;span style=&quot;color: rgb(181, 206, 168);&quot;&gt;2&lt;/span&gt; &lt;span style=&quot;color: rgb(212, 212, 212);&quot;&gt;*&lt;/span&gt; &lt;span style=&quot;color: rgb(156, 220, 254);&quot;&gt;height&lt;/span&gt; &lt;span style=&quot;color: rgb(212, 212, 212);&quot;&gt;*&lt;/span&gt; &lt;span style=&quot;color: rgb(156, 220, 254);&quot;&gt;base&lt;/span&gt;&lt;/div&gt;" style="rounded=1;whiteSpace=wrap;html=1;absoluteArcSize=1;arcSize=14;strokeWidth=2;labelBackgroundColor=none;" vertex="1" parent="29">
                    <mxGeometry y="700" width="250" height="80" as="geometry"/>
                </mxCell>
                <mxCell id="13" style="edgeStyle=none;html=1;exitX=0.5;exitY=1;exitDx=0;exitDy=0;entryX=0.5;entryY=0;entryDx=0;entryDy=0;" edge="1" parent="29" source="10" target="11">
                    <mxGeometry relative="1" as="geometry"/>
                </mxCell>
                <mxCell id="16" style="edgeStyle=none;html=1;exitX=0.5;exitY=1;exitDx=0;exitDy=0;exitPerimeter=0;entryX=0.5;entryY=0;entryDx=0;entryDy=0;entryPerimeter=0;" edge="1" parent="29" source="14" target="3">
                    <mxGeometry relative="1" as="geometry"/>
                </mxCell>
                <mxCell id="14" value="&lt;div style=&quot;font-family: Consolas, &amp;quot;Courier New&amp;quot;, monospace; font-size: 14px; line-height: 19px;&quot;&gt;&lt;font color=&quot;#dcdcaa&quot;&gt;Print &lt;/font&gt;&lt;font color=&quot;#ce9178&quot;&gt;tr&lt;/font&gt;&lt;span style=&quot;color: rgb(206, 145, 120);&quot;&gt;iangle area&lt;/span&gt;&lt;/div&gt;" style="strokeWidth=2;html=1;shape=mxgraph.flowchart.display;whiteSpace=wrap;labelBackgroundColor=none;" vertex="1" parent="29">
                    <mxGeometry x="30" y="820" width="190" height="110" as="geometry"/>
                </mxCell>
                <mxCell id="15" style="edgeStyle=none;html=1;exitX=0.5;exitY=1;exitDx=0;exitDy=0;entryX=0.5;entryY=0;entryDx=0;entryDy=0;entryPerimeter=0;" edge="1" parent="29" source="11" target="14">
                    <mxGeometry relative="1" as="geometry"/>
                </mxCell>
            </root>
        </mxGraphModel>
    </diagram>
</mxfile>